<svg width="20" height="21" viewBox="0 0 20 21" fill="none" xmlns="http://www.w3.org/2000/svg">
<mask id="mask0_34_65" style="mask-type:alpha" maskUnits="userSpaceOnUse" x="0" y="0" width="20" height="21">
<rect y="0.5" width="20" height="20" fill="#D9D9D9"/>
</mask>
<g mask="url(#mask0_34_65)">
<path d="M6.1859 17.1667V8L10.8814 3.34615C11.0043 3.22329 11.1413 3.14716 11.2925 3.11777C11.4436 3.0884 11.5871 3.1111 11.7228 3.1859C11.8585 3.26067 11.9567 3.36965 12.0176 3.51281C12.0785 3.65598 12.0903 3.80609 12.0529 3.96315L11.1955 8H16.9872C17.3355 8 17.6469 8.13729 17.9215 8.41186C18.196 8.68642 18.3333 8.99786 18.3333 9.34615V10.3718C18.3333 10.4495 18.3248 10.5328 18.3077 10.6216C18.2906 10.7104 18.2682 10.7927 18.2404 10.8686L15.964 16.2647C15.8502 16.5199 15.6581 16.734 15.3878 16.9071C15.1175 17.0801 14.8367 17.1667 14.5454 17.1667H6.1859ZM7.01923 8.35577V16.3333H14.5513C14.6688 16.3333 14.789 16.3013 14.9119 16.2372C15.0347 16.1731 15.1282 16.0662 15.1923 15.9167L17.5 10.5V9.34615C17.5 9.19658 17.4519 9.07372 17.3558 8.97756C17.2596 8.88141 17.1368 8.83333 16.9872 8.83333H10.1602L11.125 4.28204L7.01923 8.35577ZM3.84615 17.1667C3.47595 17.1667 3.15905 17.0349 2.89544 16.7712C2.63181 16.5076 2.5 16.1907 2.5 15.8205V9.34615C2.5 8.97595 2.63181 8.65905 2.89544 8.39544C3.15905 8.13181 3.47595 8 3.84615 8H6.1859V8.83333H3.84615C3.69658 8.83333 3.57372 8.88141 3.47756 8.97756C3.38141 9.07372 3.33333 9.19658 3.33333 9.34615V15.8205C3.33333 15.9701 3.38141 16.093 3.47756 16.1891C3.57372 16.2853 3.69658 16.3333 3.84615 16.3333H6.1859V17.1667H3.84615Z" fill="#1C1B1F"/>
</g>
</svg>
