<svg width="106" height="152" viewBox="0 0 106 152" fill="none" xmlns="http://www.w3.org/2000/svg">
<path d="M27.24 103.11L26.4266 105.998L26.4266 105.998L27.24 103.11ZM18.28 98.87L15.497 97.7498L14.6666 99.8127L16.399 101.207L18.28 98.87ZM23.4 86.15L25.0641 83.6538L21.9945 81.6075L20.617 85.0298L23.4 86.15ZM30.6 89.59L29.7052 92.4534L29.7325 92.462L29.76 92.47L30.6 89.59ZM43.88 89.59L42.3202 87.0274L42.2946 87.043L42.2694 87.059L43.88 89.59ZM44.2 83.11L42.598 85.6465L42.598 85.6465L44.2 83.11ZM29.32 82.15H26.32V85.15H29.32V82.15ZM29.32 68.71V65.71H26.32V68.71H29.32ZM42.36 67.67L40.725 65.1547L40.725 65.1547L42.36 67.67ZM42.36 61.51L40.6396 63.9677L40.6818 63.9972L40.725 64.0253L42.36 61.51ZM24.36 64.87L21.5908 66.0238L23.0614 69.5533L26.1396 67.2852L24.36 64.87ZM19.16 52.39L17.3682 49.9839L15.4902 51.3824L16.3908 53.5438L19.16 52.39ZM54.76 50.63L52.9325 53.0092L52.9435 53.0175L52.9545 53.0258L54.76 50.63ZM57.56 70.47L55.2068 68.6093L55.1933 68.6263L55.1801 68.6435L57.56 70.47ZM50.2 75.03H47.2V78.8252L50.8926 77.9489L50.2 75.03ZM50.2 73.83L50.6723 70.8674L47.2 70.3139V73.83H50.2ZM58.84 78.47L56.5313 80.3857L56.5433 80.4001L56.5554 80.4144L58.84 78.47ZM55.88 100.23L57.6445 102.656L57.6445 102.656L55.88 100.23ZM39 101.71C35.2133 101.71 31.5674 101.212 28.0534 100.222L26.4266 105.998C30.4859 107.141 34.6801 107.71 39 107.71V101.71ZM28.0534 100.222C24.5107 99.2244 21.9331 97.9592 20.161 96.533L16.399 101.207C19.0003 103.301 22.396 104.862 26.4266 105.998L28.0534 100.222ZM21.063 99.9902L26.183 87.2702L20.617 85.0298L15.497 97.7498L21.063 99.9902ZM21.7359 88.6461C24.2126 90.2973 26.8715 91.5679 29.7052 92.4534L31.4948 86.7266C29.2085 86.0121 27.0674 84.9894 25.0641 83.6538L21.7359 88.6461ZM29.76 92.47C32.5873 93.2946 35.4566 93.71 38.36 93.71V87.71C36.0367 87.71 33.7327 87.3787 31.44 86.71L29.76 92.47ZM38.36 93.71C41.0416 93.71 43.5856 93.3332 45.4906 92.121L42.2694 87.059C41.8277 87.3401 40.6917 87.71 38.36 87.71V93.71ZM45.4398 92.1526C47.6035 90.8356 48.72 88.7194 48.72 86.23H42.72C42.72 86.5587 42.6554 86.7003 42.6287 86.7491C42.605 86.7924 42.5413 86.8928 42.3202 87.0274L45.4398 92.1526ZM48.72 86.23C48.72 84.0013 47.8713 81.8804 45.802 80.5735L42.598 85.6465C42.6344 85.6694 42.6435 85.6812 42.6404 85.6777C42.6368 85.6738 42.6375 85.6725 42.643 85.6839C42.6542 85.7069 42.72 85.8565 42.72 86.23H48.72ZM45.802 80.5735C44.0818 79.4871 41.8856 79.15 39.64 79.15V85.15C41.4477 85.15 42.2916 85.4529 42.598 85.6465L45.802 80.5735ZM39.64 79.15H29.32V85.15H39.64V79.15ZM32.32 82.15V68.71H26.32V82.15H32.32ZM29.32 71.71H37.96V65.71H29.32V71.71ZM37.96 71.71C40.1511 71.71 42.2641 71.3104 43.995 70.1853L40.725 65.1547C40.3225 65.4163 39.5023 65.71 37.96 65.71V71.71ZM43.995 70.1853C45.961 68.9074 46.96 66.9201 46.96 64.63H40.96C40.96 64.89 40.9105 64.9827 40.9052 64.9928C40.9031 64.9969 40.8772 65.0557 40.725 65.1547L43.995 70.1853ZM46.96 64.63C46.96 62.3365 46.0002 60.2981 43.995 58.9947L40.725 64.0253C40.8594 64.1127 40.8836 64.1655 40.8905 64.1789C40.903 64.2032 40.96 64.3244 40.96 64.63H46.96ZM44.0804 59.0523C42.2895 57.7987 39.9974 57.39 37.64 57.39V63.39C39.4426 63.39 40.2971 63.728 40.6396 63.9677L44.0804 59.0523ZM37.64 57.39C32.1669 57.39 27.1224 59.1081 22.5804 62.4548L26.1396 67.2852C29.7043 64.6586 33.5131 63.39 37.64 63.39V57.39ZM27.1292 63.7162L21.9292 51.2362L16.3908 53.5438L21.5908 66.0238L27.1292 63.7162ZM20.9518 54.7961C23.1285 53.1752 25.8377 51.8498 29.1381 50.8647L27.4219 45.1153C23.5756 46.2635 20.2048 47.8715 17.3682 49.9839L20.9518 54.7961ZM29.1381 50.8647C32.4248 49.8836 35.8419 49.39 39.4 49.39V43.39C35.2781 43.39 31.2819 43.9631 27.4219 45.1153L29.1381 50.8647ZM39.4 49.39C45.5657 49.39 49.9548 50.7219 52.9325 53.0092L56.5875 48.2508C52.2053 44.8848 46.3543 43.39 39.4 43.39V49.39ZM52.9545 53.0258C55.8089 55.177 57.28 58.1427 57.28 62.31H63.28C63.28 56.4507 61.0711 51.6296 56.5656 48.2342L52.9545 53.0258ZM57.28 62.31C57.28 64.8364 56.5683 66.8874 55.2068 68.6093L59.9132 72.3307C62.1784 69.466 63.28 66.0769 63.28 62.31H57.28ZM55.1801 68.6435C53.8902 70.3243 52.0673 71.5036 49.5074 72.111L50.8926 77.9489C54.626 77.0631 57.7098 75.2024 59.9399 72.2965L55.1801 68.6435ZM53.2 75.03V73.83H47.2V75.03H53.2ZM49.7277 76.7926C52.7991 77.2822 54.9828 78.5196 56.5313 80.3857L61.1487 76.5543C58.5372 73.4071 54.9609 71.5511 50.6723 70.8674L49.7277 76.7926ZM56.5554 80.4144C58.1583 82.2978 59.04 84.7224 59.04 87.91H65.04C65.04 83.5243 63.7883 79.6555 61.1246 76.5256L56.5554 80.4144ZM59.04 87.91C59.04 92.2101 57.4194 95.4009 54.1155 97.8038L57.6445 102.656C62.5539 99.0857 65.04 94.0632 65.04 87.91H59.04ZM54.1155 97.8038C50.6927 100.293 45.7633 101.71 39 101.71V107.71C46.53 107.71 52.854 106.14 57.6445 102.656L54.1155 97.8038Z" fill="#08FB06"/>
</svg>
