<svg width="106" height="152" viewBox="0 0 106 152" fill="none" xmlns="http://www.w3.org/2000/svg">
<path d="M21.96 103.75H18.96V106.75H21.96V103.75ZM21.96 91.11L19.803 89.0249L18.96 89.897V91.11H21.96ZM38.2 74.31L40.357 76.3951L40.3675 76.3842L40.3779 76.3732L38.2 74.31ZM42.2 69.35L39.6275 67.8065L39.618 67.8224L39.6087 67.8384L42.2 69.35ZM41.64 61.67L39.8219 64.0563L39.8847 64.1042L39.95 64.1487L41.64 61.67ZM30.68 61.51L31.6287 64.3561L31.6499 64.349L31.6711 64.3416L30.68 61.51ZM24.28 64.87L21.5108 66.0238L22.9524 69.4837L26.0124 67.3192L24.28 64.87ZM19.08 52.39L17.3125 49.966L15.4008 51.3599L16.3108 53.5438L19.08 52.39ZM28.28 47.99L27.4335 45.1119L27.4219 45.1153L28.28 47.99ZM54.84 50.79L52.9194 53.0947L52.9383 53.1104L52.9574 53.1258L54.84 50.79ZM57.96 73.03L60.6617 74.3342L60.6617 74.3342L57.96 73.03ZM50.12 82.95L48.062 80.7672L48.0565 80.7724L48.051 80.7776L50.12 82.95ZM38.36 94.15H35.36V101.15L40.429 96.3224L38.36 94.15ZM38.36 89.83V86.83H35.36V89.83H38.36ZM62.2 89.83H65.2V86.83H62.2V89.83ZM62.2 103.75V106.75H65.2V103.75H62.2ZM24.96 103.75V91.11H18.96V103.75H24.96ZM24.117 93.1951L40.357 76.3951L36.043 72.2249L19.803 89.0249L24.117 93.1951ZM40.3779 76.3732C42.3433 74.2986 43.8676 72.4451 44.7913 70.8616L39.6087 67.8384C39.039 68.8149 37.8967 70.268 36.0221 72.2468L40.3779 76.3732ZM44.7725 70.8935C45.8051 69.1724 46.4 67.3119 46.4 65.35H40.4C40.4 66.0548 40.1949 66.8609 39.6275 67.8065L44.7725 70.8935ZM46.4 65.35C46.4 62.8928 45.4671 60.6484 43.33 59.1913L39.95 64.1487C40.1596 64.2916 40.4 64.5005 40.4 65.35H46.4ZM43.4581 59.2837C41.6077 57.8739 39.2293 57.39 36.76 57.39V63.39C38.5574 63.39 39.4323 63.7595 39.8219 64.0563L43.4581 59.2837ZM36.76 57.39C34.4487 57.39 32.0857 57.8396 29.6889 58.6784L31.6711 64.3416C33.541 63.6871 35.2313 63.39 36.76 63.39V57.39ZM29.7313 58.6639C27.3182 59.4683 24.9235 60.7403 22.5476 62.4208L26.0124 67.3192C28.0099 65.9064 29.8818 64.9384 31.6287 64.3561L29.7313 58.6639ZM27.0492 63.7162L21.8492 51.2362L16.3108 53.5438L21.5108 66.0238L27.0492 63.7162ZM20.8475 54.814C23.0883 53.1801 25.8348 51.8507 29.1381 50.8647L27.4219 45.1153C23.5785 46.2626 20.1917 47.8665 17.3125 49.966L20.8475 54.814ZM29.1265 50.8681C32.4818 49.8813 35.8768 49.39 39.32 49.39V43.39C35.2965 43.39 31.3316 43.9654 27.4335 45.1119L29.1265 50.8681ZM39.32 49.39C45.7768 49.39 50.148 50.7851 52.9194 53.0947L56.7606 48.4853C52.492 44.9282 46.5165 43.39 39.32 43.39V49.39ZM52.9574 53.1258C55.6901 55.3283 57.2 58.5502 57.2 63.27H63.2C63.2 57.1098 61.1365 52.0117 56.7226 48.4542L52.9574 53.1258ZM57.2 63.27C57.2 66.2287 56.5566 69.0365 55.2583 71.7258L60.6617 74.3342C62.3501 70.8368 63.2 67.138 63.2 63.27H57.2ZM55.2583 71.7258C53.9824 74.3689 51.6477 77.3863 48.062 80.7672L52.178 85.1328C56.0589 81.4736 58.951 77.8778 60.6617 74.3342L55.2583 71.7258ZM48.051 80.7776L36.291 91.9776L40.429 96.3224L52.189 85.1224L48.051 80.7776ZM41.36 94.15V89.83H35.36V94.15H41.36ZM38.36 92.83H62.2V86.83H38.36V92.83ZM59.2 89.83V103.75H65.2V89.83H59.2ZM62.2 100.75H21.96V106.75H62.2V100.75Z" fill="#08FB06"/>
</svg>
