<svg width="106" height="152" viewBox="0 0 106 152" fill="none" xmlns="http://www.w3.org/2000/svg">
<path d="M40.92 103.75H37.92V106.75H40.92V103.75ZM40.92 95.03H43.92V92.03H40.92V95.03ZM18.92 95.03H15.92V98.03H18.92V95.03ZM18.92 83.19L16.4479 81.4904L15.92 82.2582V83.19H18.92ZM43.56 47.35V44.35H41.9819L41.0879 45.6504L43.56 47.35ZM57.32 47.35H60.32V44.35H57.32V47.35ZM57.32 82.39H54.32V85.39H57.32V82.39ZM64.28 82.39H67.28V79.39H64.28V82.39ZM64.28 95.03V98.03H67.28V95.03H64.28ZM57.32 95.03V92.03H54.32V95.03H57.32ZM57.32 103.75V106.75H60.32V103.75H57.32ZM40.92 82.39V85.39H43.92V82.39H40.92ZM40.92 67.75V64.75H37.92V67.75H40.92ZM43.08 67.75L45.5745 69.4166L48.6923 64.75H43.08V67.75ZM30.68 86.31H27.68V96.2006L33.1745 87.9766L30.68 86.31ZM30.68 82.39V79.39H27.68V82.39H30.68ZM43.92 103.75V95.03H37.92V103.75H43.92ZM40.92 92.03H18.92V98.03H40.92V92.03ZM21.92 95.03V83.19H15.92V95.03H21.92ZM21.3921 84.8896L46.0321 49.0496L41.0879 45.6504L16.4479 81.4904L21.3921 84.8896ZM43.56 50.35H57.32V44.35H43.56V50.35ZM54.32 47.35V82.39H60.32V47.35H54.32ZM57.32 85.39H64.28V79.39H57.32V85.39ZM61.28 82.39V95.03H67.28V82.39H61.28ZM64.28 92.03H57.32V98.03H64.28V92.03ZM54.32 95.03V103.75H60.32V95.03H54.32ZM57.32 100.75H40.92V106.75H57.32V100.75ZM43.92 82.39V67.75H37.92V82.39H43.92ZM40.92 70.75H43.08V64.75H40.92V70.75ZM40.5855 66.0834L28.1855 84.6434L33.1745 87.9766L45.5745 69.4166L40.5855 66.0834ZM33.68 86.31V82.39H27.68V86.31H33.68ZM30.68 85.39H40.92V79.39H30.68V85.39Z" fill="#08FB06"/>
</svg>
