<svg width="106" height="152" viewBox="0 0 106 152" fill="none" xmlns="http://www.w3.org/2000/svg">
<path d="M32.44 103.91L33.0519 100.973L33.0281 100.968L33.0042 100.964L32.44 103.91ZM25.4 101.91L24.2266 104.671L24.2677 104.688L24.3094 104.705L25.4 101.91ZM20.04 98.87L17.257 97.7498L16.4121 99.8489L18.1982 101.238L20.04 98.87ZM25.16 86.15L26.7823 83.6265L23.7313 81.6651L22.377 85.0298L25.16 86.15ZM32.28 89.51L33.1921 86.652L33.1921 86.652L32.28 89.51ZM45.08 89.43L46.7932 91.8927L46.8037 91.8854L46.8141 91.8781L45.08 89.43ZM45.16 81.83L43.3257 84.2039L43.3851 84.2498L43.4468 84.2927L45.16 81.83ZM36.04 81.19L36.9543 84.0473L36.988 84.0365L37.0213 84.025L36.04 81.19ZM32.12 83.19V86.19H33.0749L33.8541 85.6381L32.12 83.19ZM21.64 83.19H18.64V86.19H21.64V83.19ZM21.64 47.35V44.35H18.64V47.35H21.64ZM59.64 47.35H62.64V44.35H59.64V47.35ZM59.64 61.27V64.27H62.64V61.27H59.64ZM37.64 61.27V58.27H34.64V61.27H37.64ZM37.64 70.71V73.71H40.64V70.71H37.64ZM33.88 70.71L31.7587 68.5887L26.6374 73.71H33.88V70.71ZM38.6 67.91L37.6745 65.0563L37.6629 65.0601L37.6513 65.0639L38.6 67.91ZM54.52 69.27L53.0371 71.8779L53.0672 71.895L53.0977 71.9114L54.52 69.27ZM61 75.59L58.3921 77.0729L58.3921 77.0729L61 75.59ZM60.52 95.51L63.051 97.1206L63.0575 97.1103L63.064 97.1L60.52 95.51ZM52.52 102.31L53.7772 105.034L53.7772 105.034L52.52 102.31ZM40.12 101.71C37.77 101.71 35.4149 101.465 33.0519 100.973L31.8281 106.847C34.5851 107.421 37.35 107.71 40.12 107.71V101.71ZM33.0042 100.964C30.6618 100.515 28.4928 99.8966 26.4906 99.1153L24.3094 104.705C26.6806 105.63 29.2048 106.345 31.8758 106.856L33.0042 100.964ZM26.5734 99.149C24.6179 98.3179 23.0705 97.4264 21.8818 96.5019L18.1982 101.238C19.8895 102.554 21.9155 103.689 24.2266 104.671L26.5734 99.149ZM22.823 99.9902L27.943 87.2702L22.377 85.0298L17.257 97.7498L22.823 99.9902ZM23.5377 88.6735C25.9961 90.2539 28.6078 91.4871 31.3679 92.368L33.1921 86.652C30.9388 85.9329 28.8039 84.9261 26.7823 83.6265L23.5377 88.6735ZM31.3679 92.368C34.1481 93.2553 36.9355 93.71 39.72 93.71V87.71C37.5979 87.71 35.4253 87.3647 33.1921 86.652L31.3679 92.368ZM39.72 93.71C42.3559 93.71 44.8513 93.2436 46.7932 91.8927L43.3668 86.9673C42.8554 87.323 41.7775 87.71 39.72 87.71V93.71ZM46.8141 91.8781C48.9374 90.374 50 88.1543 50 85.59H44C44 86.3323 43.7826 86.6726 43.3459 86.9819L46.8141 91.8781ZM50 85.59C50 83.0767 49.0013 80.8477 46.8732 79.3673L43.4468 84.2927C43.772 84.5189 44 84.7966 44 85.59H50ZM46.9943 79.4561C45.1327 78.0176 42.81 77.47 40.36 77.47V83.47C41.9633 83.47 42.8406 83.8291 43.3257 84.2039L46.9943 79.4561ZM40.36 77.47C38.5387 77.47 36.7666 77.7638 35.0587 78.355L37.0213 84.025C38.0867 83.6562 39.1947 83.47 40.36 83.47V77.47ZM35.1257 78.3327C33.4669 78.8635 31.8868 79.6788 30.3859 80.7419L33.8541 85.6381C34.9132 84.8879 35.9465 84.3698 36.9543 84.0473L35.1257 78.3327ZM32.12 80.19H21.64V86.19H32.12V80.19ZM24.64 83.19V47.35H18.64V83.19H24.64ZM21.64 50.35H59.64V44.35H21.64V50.35ZM56.64 47.35V61.27H62.64V47.35H56.64ZM59.64 58.27H37.64V64.27H59.64V58.27ZM34.64 61.27V70.71H40.64V61.27H34.64ZM37.64 67.71H33.88V73.71H37.64V67.71ZM36.0013 72.8313C36.8479 71.9847 37.997 71.2733 39.5487 70.756L37.6513 65.0639C35.363 65.8267 33.3654 66.982 31.7587 68.5887L36.0013 72.8313ZM39.5255 70.7637C41.1702 70.2303 42.9881 69.95 45 69.95V63.95C42.4253 63.95 39.9765 64.3097 37.6745 65.0563L39.5255 70.7637ZM45 69.95C48.1903 69.95 50.8365 70.6266 53.0371 71.8779L56.0029 66.6621C52.7635 64.8201 49.063 63.95 45 63.95V69.95ZM53.0977 71.9114C55.3784 73.1395 57.126 74.8462 58.3921 77.0729L63.6079 74.1071C61.7807 70.8938 59.2083 68.3872 55.9423 66.6286L53.0977 71.9114ZM58.3921 77.0729C59.6434 79.2735 60.32 81.9197 60.32 85.11H66.32C66.32 81.047 65.4499 77.3465 63.6079 74.1071L58.3921 77.0729ZM60.32 85.11C60.32 88.5642 59.5097 91.466 57.976 93.92L63.064 97.1C65.2636 93.5806 66.32 89.5492 66.32 85.11H60.32ZM57.989 93.8994C56.4614 96.2999 54.2601 98.2028 51.2628 99.5861L53.7772 105.034C57.7132 103.217 60.8453 100.587 63.051 97.1206L57.989 93.8994ZM51.2628 99.5861C48.278 100.964 44.5942 101.71 40.12 101.71V107.71C45.2458 107.71 49.8286 106.856 53.7772 105.034L51.2628 99.5861Z" fill="#08FB06"/>
</svg>
