<svg width="121" height="36" viewBox="0 0 121 36" fill="none" xmlns="http://www.w3.org/2000/svg">
<mask id="mask0_34_41" style="mask-type:alpha" maskUnits="userSpaceOnUse" x="0" y="0" width="25" height="24">
<rect x="0.5" width="24" height="24" fill="#D9D9D9"/>
</mask>
<g mask="url(#mask0_34_41)">
<path d="M12.5 17.6534L7.65895 20.5765C7.51706 20.6466 7.38544 20.6748 7.26408 20.6611C7.14271 20.6474 7.02475 20.6056 6.91022 20.5355C6.79571 20.4654 6.70853 20.365 6.64868 20.2342C6.58886 20.1034 6.58374 19.962 6.63332 19.8098L7.92048 14.3303L3.66152 10.6354C3.54185 10.538 3.46278 10.4214 3.42432 10.2854C3.38587 10.1496 3.39399 10.0192 3.44868 9.89445C3.50339 9.76965 3.57691 9.66794 3.66922 9.58931C3.76151 9.51067 3.88628 9.45767 4.04355 9.43031L9.66408 8.94058L11.8564 3.75085C11.9162 3.60383 12.003 3.49784 12.1166 3.43288C12.2303 3.36793 12.3581 3.33545 12.5 3.33545C12.6419 3.33545 12.7697 3.36793 12.8833 3.43288C12.997 3.49784 13.0837 3.60383 13.1436 3.75085L15.3359 8.94058L20.9564 9.43031C21.1137 9.45767 21.2385 9.51067 21.3307 9.58931C21.4231 9.66794 21.4966 9.76965 21.5513 9.89445C21.606 10.0192 21.6141 10.1496 21.5757 10.2854C21.5372 10.4214 21.4581 10.538 21.3384 10.6354L17.0795 14.3303L18.3666 19.8098C18.4162 19.962 18.4111 20.1034 18.3513 20.2342C18.2914 20.365 18.2043 20.4654 18.0898 20.5355C17.9752 20.6056 17.8573 20.6474 17.7359 20.6611C17.6145 20.6748 17.4829 20.6466 17.341 20.5765L12.5 17.6534Z" fill="#08FB06"/>
</g>
<mask id="mask1_34_41" style="mask-type:alpha" maskUnits="userSpaceOnUse" x="24" y="0" width="25" height="24">
<rect x="24.5" width="24" height="24" fill="#D9D9D9"/>
</mask>
<g mask="url(#mask1_34_41)">
<path d="M36.5 17.6534L31.659 20.5765C31.5171 20.6466 31.3854 20.6748 31.2641 20.6611C31.1427 20.6474 31.0248 20.6056 30.9102 20.5355C30.7957 20.4654 30.7085 20.365 30.6487 20.2342C30.5889 20.1034 30.5837 19.962 30.6333 19.8098L31.9205 14.3303L27.6615 10.6354C27.5419 10.538 27.4628 10.4214 27.4243 10.2854C27.3859 10.1496 27.394 10.0192 27.4487 9.89445C27.5034 9.76965 27.5769 9.66794 27.6692 9.58931C27.7615 9.51067 27.8863 9.45767 28.0436 9.43031L33.6641 8.94058L35.8564 3.75085C35.9162 3.60383 36.003 3.49784 36.1166 3.43288C36.2303 3.36793 36.3581 3.33545 36.5 3.33545C36.6419 3.33545 36.7697 3.36793 36.8833 3.43288C36.997 3.49784 37.0837 3.60383 37.1436 3.75085L39.3359 8.94058L44.9564 9.43031C45.1137 9.45767 45.2385 9.51067 45.3307 9.58931C45.4231 9.66794 45.4966 9.76965 45.5513 9.89445C45.606 10.0192 45.6141 10.1496 45.5757 10.2854C45.5372 10.4214 45.4581 10.538 45.3384 10.6354L41.0795 14.3303L42.3666 19.8098C42.4162 19.962 42.4111 20.1034 42.3513 20.2342C42.2914 20.365 42.2043 20.4654 42.0898 20.5355C41.9752 20.6056 41.8573 20.6474 41.7359 20.6611C41.6145 20.6748 41.4829 20.6466 41.341 20.5765L36.5 17.6534Z" fill="#08FB06"/>
</g>
<mask id="mask2_34_41" style="mask-type:alpha" maskUnits="userSpaceOnUse" x="48" y="0" width="25" height="24">
<rect x="48.5" width="24" height="24" fill="#D9D9D9"/>
</mask>
<g mask="url(#mask2_34_41)">
<path d="M60.5 17.6534L55.659 20.5765C55.5171 20.6466 55.3854 20.6748 55.2641 20.6611C55.1427 20.6474 55.0248 20.6056 54.9102 20.5355C54.7957 20.4654 54.7085 20.365 54.6487 20.2342C54.5889 20.1034 54.5837 19.962 54.6333 19.8098L55.9205 14.3303L51.6615 10.6354C51.5419 10.538 51.4628 10.4214 51.4243 10.2854C51.3859 10.1496 51.394 10.0192 51.4487 9.89445C51.5034 9.76965 51.5769 9.66794 51.6692 9.58931C51.7615 9.51067 51.8863 9.45767 52.0436 9.43031L57.6641 8.94058L59.8564 3.75085C59.9162 3.60383 60.003 3.49784 60.1166 3.43288C60.2303 3.36793 60.3581 3.33545 60.5 3.33545C60.6419 3.33545 60.7697 3.36793 60.8833 3.43288C60.997 3.49784 61.0837 3.60383 61.1436 3.75085L63.3359 8.94058L68.9564 9.43031C69.1137 9.45767 69.2385 9.51067 69.3307 9.58931C69.4231 9.66794 69.4966 9.76965 69.5513 9.89445C69.606 10.0192 69.6141 10.1496 69.5757 10.2854C69.5372 10.4214 69.4581 10.538 69.3384 10.6354L65.0795 14.3303L66.3666 19.8098C66.4162 19.962 66.4111 20.1034 66.3513 20.2342C66.2914 20.365 66.2043 20.4654 66.0898 20.5355C65.9752 20.6056 65.8573 20.6474 65.7359 20.6611C65.6145 20.6748 65.4829 20.6466 65.341 20.5765L60.5 17.6534Z" fill="#08FB06"/>
</g>
<mask id="mask3_34_41" style="mask-type:alpha" maskUnits="userSpaceOnUse" x="72" y="0" width="25" height="24">
<rect x="72.5" width="24" height="24" fill="#D9D9D9"/>
</mask>
<g mask="url(#mask3_34_41)">
<path d="M84.5 17.6534L79.659 20.5765C79.5171 20.6466 79.3854 20.6748 79.2641 20.6611C79.1427 20.6474 79.0248 20.6056 78.9102 20.5355C78.7957 20.4654 78.7085 20.365 78.6487 20.2342C78.5889 20.1034 78.5837 19.962 78.6333 19.8098L79.9205 14.3303L75.6615 10.6354C75.5419 10.538 75.4628 10.4214 75.4243 10.2854C75.3859 10.1496 75.394 10.0192 75.4487 9.89445C75.5034 9.76965 75.5769 9.66794 75.6692 9.58931C75.7615 9.51067 75.8863 9.45767 76.0436 9.43031L81.6641 8.94058L83.8564 3.75085C83.9162 3.60383 84.003 3.49784 84.1166 3.43288C84.2303 3.36793 84.3581 3.33545 84.5 3.33545C84.6419 3.33545 84.7697 3.36793 84.8833 3.43288C84.997 3.49784 85.0837 3.60383 85.1436 3.75085L87.3359 8.94058L92.9564 9.43031C93.1137 9.45767 93.2385 9.51067 93.3307 9.58931C93.4231 9.66794 93.4966 9.76965 93.5513 9.89445C93.606 10.0192 93.6141 10.1496 93.5757 10.2854C93.5372 10.4214 93.4581 10.538 93.3384 10.6354L89.0795 14.3303L90.3666 19.8098C90.4162 19.962 90.4111 20.1034 90.3513 20.2342C90.2914 20.365 90.2043 20.4654 90.0898 20.5355C89.9752 20.6056 89.8573 20.6474 89.7359 20.6611C89.6145 20.6748 89.4829 20.6466 89.341 20.5765L84.5 17.6534Z" fill="#08FB06"/>
</g>
<mask id="mask4_34_41" style="mask-type:alpha" maskUnits="userSpaceOnUse" x="96" y="0" width="25" height="24">
<rect x="96.5" width="24" height="24" fill="#D9D9D9"/>
</mask>
<g mask="url(#mask4_34_41)">
<path d="M108.5 5.68417V16.0842L112.7 18.6508L111.6 13.8508L115.3 10.6508L110.433 10.2175L108.5 5.68417ZM108.5 17.6534L103.659 20.5765C103.517 20.6466 103.385 20.6748 103.264 20.6611C103.143 20.6474 103.025 20.6056 102.91 20.5355C102.796 20.4654 102.709 20.3649 102.649 20.2342C102.589 20.1034 102.584 19.962 102.633 19.8098L103.92 14.3303L99.6615 10.6354C99.5419 10.538 99.4628 10.4213 99.4243 10.2854C99.3859 10.1495 99.394 10.0192 99.4487 9.89443C99.5034 9.76963 99.5769 9.66792 99.6692 9.5893C99.7615 9.51066 99.8863 9.45765 100.044 9.4303L105.664 8.94057L107.856 3.75083C107.916 3.60381 108.003 3.49782 108.117 3.43287C108.23 3.36791 108.358 3.33543 108.5 3.33543C108.642 3.33543 108.77 3.36791 108.883 3.43287C108.997 3.49782 109.084 3.60381 109.144 3.75083L111.336 8.94057L116.956 9.4303C117.114 9.45765 117.238 9.51066 117.331 9.5893C117.423 9.66792 117.497 9.76963 117.551 9.89443C117.606 10.0192 117.614 10.1495 117.576 10.2854C117.537 10.4213 117.458 10.538 117.338 10.6354L113.079 14.3303L114.367 19.8098C114.416 19.962 114.411 20.1034 114.351 20.2342C114.291 20.3649 114.204 20.4654 114.09 20.5355C113.975 20.6056 113.857 20.6474 113.736 20.6611C113.615 20.6748 113.483 20.6466 113.341 20.5765L108.5 17.6534Z" fill="#08FB06"/>
</g>
</svg>
