<svg width="434" height="97" viewBox="0 0 434 97" fill="none" xmlns="http://www.w3.org/2000/svg">
<path d="M1.048 94.5H-1.952V97.5H1.048V94.5ZM0.796 39.438L-2.19963 39.5999L-2.19938 39.6044L0.796 39.438ZM0.0400004 30.24V27.24H-3.31179L-2.94165 30.5713L0.0400004 30.24ZM25.24 30.24L28.2119 29.8307L27.8551 27.24H25.24V30.24ZM28.138 51.282V54.282H31.5795L31.1099 50.8727L28.138 51.282ZM24.232 51.282L21.2715 50.7967L20.7002 54.282H24.232V51.282ZM28.012 38.682L25.3558 37.2875L25.3491 37.3002L25.3426 37.313L28.012 38.682ZM34.816 31.248L36.3129 33.8479L36.3421 33.8311L36.3709 33.8136L34.816 31.248ZM49.054 28.98L48.4657 31.9217L48.4915 31.9269L48.5173 31.9316L49.054 28.98ZM51.952 29.862H54.952V27.862L53.1059 27.0928L51.952 29.862ZM51.952 52.794L50.7336 55.5354L54.952 57.4103V52.794H51.952ZM46.534 50.904L45.8064 53.8144L45.8932 53.8361L45.9811 53.8526L46.534 50.904ZM33.052 52.038L34.3936 54.7213L34.4376 54.6993L34.4809 54.6759L33.052 52.038ZM28.768 57.204L25.9319 56.226H25.9319L28.768 57.204ZM27.508 94.5V97.5H30.508V94.5H27.508ZM4.048 94.5V48.51H-1.952V94.5H4.048ZM4.048 48.51C4.048 45.4304 3.96245 42.3509 3.79138 39.2716L-2.19938 39.6044C-2.03445 42.5731 -1.952 45.5416 -1.952 48.51H4.048ZM3.79163 39.2761C3.62064 36.1128 3.36405 32.9903 3.02165 29.9087L-2.94165 30.5713C-2.61205 33.5377 -2.36464 36.5472 -2.19963 39.5999L3.79163 39.2761ZM0.0400004 33.24H25.24V27.24H0.0400004V33.24ZM22.2681 30.6493L25.1661 51.6913L31.1099 50.8727L28.2119 29.8307L22.2681 30.6493ZM28.138 48.282H24.232V54.282H28.138V48.282ZM27.1925 51.7673C28.001 46.8354 29.189 42.9613 30.6815 40.0509L25.3426 37.313C23.475 40.9547 22.143 45.4806 21.2715 50.7967L27.1925 51.7673ZM30.6682 40.0765C32.2178 37.1249 34.1193 35.1109 36.3129 33.8479L33.3191 28.6481C29.9687 30.5771 27.3342 33.5191 25.3558 37.2875L30.6682 40.0765ZM36.3709 33.8136C38.5813 32.4739 41.3767 31.728 44.896 31.728V25.728C40.5193 25.728 36.5947 26.6621 33.2611 28.6824L36.3709 33.8136ZM44.896 31.728C46.8134 31.728 47.9408 31.8168 48.4657 31.9217L49.6423 26.0383C48.4872 25.8072 46.8426 25.728 44.896 25.728V31.728ZM48.5173 31.9316C49.1987 32.0555 49.9575 32.2809 50.7982 32.6312L53.1059 27.0928C51.9305 26.6031 50.7573 26.2405 49.5907 26.0284L48.5173 31.9316ZM48.952 29.862V52.794H54.952V29.862H48.952ZM53.1704 50.0526C50.832 49.0132 48.7746 48.2718 47.0869 47.9554L45.9811 53.8526C46.9814 54.0402 48.536 54.5587 50.7336 55.5354L53.1704 50.0526ZM47.2616 47.9936C45.584 47.5742 43.5479 47.4 41.242 47.4V53.4C43.3041 53.4 44.796 53.5618 45.8064 53.8144L47.2616 47.9936ZM41.242 47.4C37.5296 47.4 34.2437 47.9806 31.6231 49.4001L34.4809 54.6759C35.8923 53.9114 38.0664 53.4 41.242 53.4V47.4ZM31.7104 49.3547C28.8904 50.7647 26.9881 53.1631 25.9319 56.226L31.6041 58.182C32.2279 56.3729 33.1816 55.3273 34.3936 54.7213L31.7104 49.3547ZM25.9319 56.226C24.9367 59.112 24.508 62.8073 24.508 67.158H30.508C30.508 63.1087 30.9193 60.168 31.6041 58.182L25.9319 56.226ZM24.508 67.158V94.5H30.508V67.158H24.508ZM27.508 91.5H1.048V97.5H27.508V91.5ZM67.5071 86.94L69.5279 84.7227L67.5071 86.94ZM61.5851 44.982L58.9564 43.5362L58.9471 43.5532L58.938 43.5702L61.5851 44.982ZM73.1771 33.138L74.675 35.7373L74.6819 35.7333L74.6887 35.7293L73.1771 33.138ZM117.529 45.234L114.769 46.4103L114.773 46.4186L114.776 46.4268L117.529 45.234ZM120.805 67.662V70.662H123.805V67.662H120.805ZM79.7291 67.662H76.7291V70.662H79.7291V67.662ZM79.7291 55.818V52.818H76.7291V55.818H79.7291ZM101.275 55.818L103.182 58.1338L109.637 52.818H101.275V55.818ZM99.1331 57.582H96.1331V63.9389L101.04 59.8978L99.1331 57.582ZM96.9911 48.636L94.5786 50.4192L94.5976 50.445L94.6172 50.4703L96.9911 48.636ZM84.3911 49.266L81.8676 47.6437L81.8599 47.6556L81.8524 47.6676L84.3911 49.266ZM85.7771 73.584L83.7357 75.7824L83.7763 75.8201L83.8183 75.8562L85.7771 73.584ZM105.559 75.852L106.164 78.7904L106.205 78.7819L106.246 78.7723L105.559 75.852ZM113.749 72.702L116.549 71.6237L115.315 68.4217L112.307 70.0716L113.749 72.702ZM120.301 89.712L121.845 92.2845L124.007 90.987L123.101 88.6337L120.301 89.712ZM108.961 94.374L108.206 91.4705L108.199 91.4724L108.192 91.4743L108.961 94.374ZM95.6051 93.012C83.9932 93.012 75.4434 90.1141 69.5279 84.7227L65.4863 89.1573C72.8428 95.8619 83.025 99.012 95.6051 99.012V93.012ZM69.5279 84.7227C63.6174 79.336 60.5531 71.9644 60.5531 62.244H54.5531C54.5531 73.3556 58.1247 82.448 65.4863 89.1573L69.5279 84.7227ZM60.5531 62.244C60.5531 56.2025 61.805 50.9446 64.2322 46.3938L58.938 43.5702C55.9891 49.0994 54.5531 55.3495 54.5531 62.244H60.5531ZM64.2137 46.4278C66.7229 41.8656 70.1971 38.3178 74.675 35.7373L71.6792 30.5387C66.2451 33.6702 61.9912 38.0184 58.9564 43.5362L64.2137 46.4278ZM74.6887 35.7293C79.2041 33.0954 84.5465 31.728 90.8171 31.728V25.728C83.6477 25.728 77.2301 27.3006 71.6655 30.5467L74.6887 35.7293ZM90.8171 31.728C97.1016 31.728 102.074 33.1001 105.922 35.6414L109.228 30.6346C104.172 27.2959 97.9726 25.728 90.8171 25.728V31.728ZM105.922 35.6414C109.861 38.2424 112.805 41.8025 114.769 46.4103L120.289 44.0577C117.885 38.4175 114.194 33.9136 109.228 30.6346L105.922 35.6414ZM114.776 46.4268C116.769 51.025 117.805 56.4026 117.805 62.622H123.805C123.805 55.7374 122.657 49.523 120.282 44.0412L114.776 46.4268ZM117.805 62.622V67.662H123.805V62.622H117.805ZM120.805 64.662H79.7291V70.662H120.805V64.662ZM82.7291 67.662V55.818H76.7291V67.662H82.7291ZM79.7291 58.818H101.275V52.818H79.7291V58.818ZM99.368 53.5022L97.226 55.2662L101.04 59.8978L103.182 58.1338L99.368 53.5022ZM102.133 57.582C102.133 53.2531 101.408 49.4455 99.3649 46.8017L94.6172 50.4703C95.4303 51.5225 96.1331 53.6789 96.1331 57.582H102.133ZM99.4036 46.8528C97.3783 44.1127 94.4862 42.738 91.0691 42.738V48.738C92.692 48.738 93.7479 49.2953 94.5786 50.4192L99.4036 46.8528ZM91.0691 42.738C87.1715 42.738 83.9649 44.3812 81.8676 47.6437L86.9146 50.8883C87.8413 49.4468 89.0867 48.738 91.0691 48.738V42.738ZM81.8524 47.6676C79.9546 50.6818 79.2491 55.0976 79.2491 60.354H85.2491C85.2491 55.3624 85.9716 52.3862 86.9298 50.8644L81.8524 47.6676ZM79.2491 60.354V63H85.2491V60.354H79.2491ZM79.2491 63C79.2491 68.2763 80.5161 72.7927 83.7357 75.7824L87.8185 71.3856C86.3341 70.0073 85.2491 67.4677 85.2491 63H79.2491ZM83.8183 75.8562C87.0028 78.6015 91.389 79.734 96.4871 79.734V73.734C92.1772 73.734 89.4234 72.7665 87.7359 71.3118L83.8183 75.8562ZM96.4871 79.734C99.8634 79.734 103.091 79.423 106.164 78.7904L104.954 72.9136C102.315 73.457 99.4948 73.734 96.4871 73.734V79.734ZM106.246 78.7723C109.369 78.0374 112.353 76.8891 115.192 75.3324L112.307 70.0716C109.937 71.3709 107.461 72.3226 104.872 72.9317L106.246 78.7723ZM110.95 73.7803L117.502 90.7903L123.101 88.6337L116.549 71.6237L110.95 73.7803ZM118.758 87.1395C115.668 88.9932 112.158 90.443 108.206 91.4705L109.716 97.2775C114.164 96.121 118.214 94.4628 121.845 92.2845L118.758 87.1395ZM108.192 91.4743C104.356 92.4921 100.165 93.012 95.6051 93.012V99.012C100.621 99.012 105.334 98.4399 109.73 97.2737L108.192 91.4743ZM151.161 94.5L148.411 95.6974L149.195 97.5H151.161V94.5ZM123.189 30.24V27.24H118.611L120.439 31.4374L123.189 30.24ZM150.531 30.24L153.336 29.1766L152.602 27.24H150.531V30.24ZM165.147 68.796V71.796H169.493L167.952 67.7326L165.147 68.796ZM160.359 68.796L157.576 67.6771L155.92 71.796H160.359V68.796ZM175.857 30.24V27.24H173.83L173.074 29.1211L175.857 30.24ZM201.435 30.24L204.178 31.4554L206.046 27.24H201.435V30.24ZM172.959 94.5V97.5H174.911L175.702 95.7154L172.959 94.5ZM153.912 93.3026L125.94 29.0426L120.439 31.4374L148.411 95.6974L153.912 93.3026ZM123.189 33.24H150.531V27.24H123.189V33.24ZM147.726 31.3034L162.342 69.8594L167.952 67.7326L153.336 29.1766L147.726 31.3034ZM165.147 65.796H160.359V71.796H165.147V65.796ZM163.143 69.9149L178.641 31.3589L173.074 29.1211L157.576 67.6771L163.143 69.9149ZM175.857 33.24H201.435V27.24H175.857V33.24ZM198.692 29.0246L170.216 93.2846L175.702 95.7154L204.178 31.4554L198.692 29.0246ZM172.959 91.5H151.161V97.5H172.959V91.5ZM207.909 94.5H204.909V97.5H207.909V94.5ZM207.909 30.24V27.24H204.909V30.24H207.909ZM234.117 30.24H237.117V27.24H234.117V30.24ZM234.117 94.5V97.5H237.117V94.5H234.117ZM207.531 22.932H204.531V25.932H207.531V22.932ZM207.531 -7.62939e-06V-3.00001H204.531V-7.62939e-06H207.531ZM234.495 -7.62939e-06H237.495V-3.00001H234.495V-7.62939e-06ZM234.495 22.932V25.932H237.495V22.932H234.495ZM210.909 94.5V30.24H204.909V94.5H210.909ZM207.909 33.24H234.117V27.24H207.909V33.24ZM231.117 30.24V94.5H237.117V30.24H231.117ZM234.117 91.5H207.909V97.5H234.117V91.5ZM210.531 22.932V-7.62939e-06H204.531V22.932H210.531ZM207.531 2.99999H234.495V-3.00001H207.531V2.99999ZM231.495 -7.62939e-06V22.932H237.495V-7.62939e-06H231.495ZM234.495 19.932H207.531V25.932H234.495V19.932ZM257.265 86.94L259.286 84.7227L257.265 86.94ZM251.343 44.982L248.714 43.5362L248.705 43.5532L248.696 43.5702L251.343 44.982ZM262.935 33.138L264.433 35.7373L264.44 35.7333L264.447 35.7293L262.935 33.138ZM307.287 45.234L304.527 46.4103L304.531 46.4186L304.534 46.4268L307.287 45.234ZM310.563 67.662V70.662H313.563V67.662H310.563ZM269.487 67.662H266.487V70.662H269.487V67.662ZM269.487 55.818V52.818H266.487V55.818H269.487ZM291.033 55.818L292.94 58.1338L299.395 52.818H291.033V55.818ZM288.891 57.582H285.891V63.9389L290.798 59.8978L288.891 57.582ZM286.749 48.636L284.337 50.4192L284.356 50.445L284.375 50.4703L286.749 48.636ZM274.149 49.266L271.626 47.6437L271.618 47.6556L271.61 47.6676L274.149 49.266ZM275.535 73.584L273.494 75.7824L273.534 75.8201L273.576 75.8562L275.535 73.584ZM295.317 75.852L295.922 78.7904L295.963 78.7819L296.004 78.7723L295.317 75.852ZM303.507 72.702L306.307 71.6237L305.073 68.4217L302.065 70.0716L303.507 72.702ZM310.059 89.712L311.603 92.2845L313.765 90.987L312.859 88.6337L310.059 89.712ZM298.719 94.374L297.964 91.4705L297.957 91.4724L297.95 91.4743L298.719 94.374ZM285.363 93.012C273.751 93.012 265.201 90.1141 259.286 84.7227L255.244 89.1573C262.601 95.8619 272.783 99.012 285.363 99.012V93.012ZM259.286 84.7227C253.375 79.336 250.311 71.9644 250.311 62.244H244.311C244.311 73.3556 247.883 82.448 255.244 89.1573L259.286 84.7227ZM250.311 62.244C250.311 56.2025 251.563 50.9446 253.99 46.3938L248.696 43.5702C245.747 49.0994 244.311 55.3495 244.311 62.244H250.311ZM253.972 46.4278C256.481 41.8656 259.955 38.3178 264.433 35.7373L261.437 30.5387C256.003 33.6702 251.749 38.0184 248.714 43.5362L253.972 46.4278ZM264.447 35.7293C268.962 33.0954 274.304 31.728 280.575 31.728V25.728C273.406 25.728 266.988 27.3006 261.423 30.5467L264.447 35.7293ZM280.575 31.728C286.86 31.728 291.832 33.1001 295.68 35.6414L298.986 30.6346C293.93 27.2959 287.731 25.728 280.575 25.728V31.728ZM295.68 35.6414C299.618 38.2424 302.563 41.8025 304.527 46.4103L310.047 44.0577C307.643 38.4175 303.952 33.9136 298.986 30.6346L295.68 35.6414ZM304.534 46.4268C306.527 51.025 307.563 56.4026 307.563 62.622H313.563C313.563 55.7374 312.415 49.523 310.04 44.0412L304.534 46.4268ZM307.563 62.622V67.662H313.563V62.622H307.563ZM310.563 64.662H269.487V70.662H310.563V64.662ZM272.487 67.662V55.818H266.487V67.662H272.487ZM269.487 58.818H291.033V52.818H269.487V58.818ZM289.126 53.5022L286.984 55.2662L290.798 59.8978L292.94 58.1338L289.126 53.5022ZM291.891 57.582C291.891 53.2531 291.166 49.4455 289.123 46.8017L284.375 50.4703C285.188 51.5225 285.891 53.6789 285.891 57.582H291.891ZM289.162 46.8528C287.136 44.1127 284.244 42.738 280.827 42.738V48.738C282.45 48.738 283.506 49.2953 284.337 50.4192L289.162 46.8528ZM280.827 42.738C276.929 42.738 273.723 44.3812 271.626 47.6437L276.673 50.8883C277.599 49.4468 278.845 48.738 280.827 48.738V42.738ZM271.61 47.6676C269.713 50.6818 269.007 55.0976 269.007 60.354H275.007C275.007 55.3624 275.73 52.3862 276.688 50.8644L271.61 47.6676ZM269.007 60.354V63H275.007V60.354H269.007ZM269.007 63C269.007 68.2763 270.274 72.7927 273.494 75.7824L277.576 71.3856C276.092 70.0073 275.007 67.4677 275.007 63H269.007ZM273.576 75.8562C276.761 78.6015 281.147 79.734 286.245 79.734V73.734C281.935 73.734 279.181 72.7665 277.494 71.3118L273.576 75.8562ZM286.245 79.734C289.621 79.734 292.849 79.423 295.922 78.7904L294.712 72.9136C292.073 73.457 289.253 73.734 286.245 73.734V79.734ZM296.004 78.7723C299.127 78.0374 302.111 76.8891 304.95 75.3324L302.065 70.0716C299.695 71.3709 297.219 72.3226 294.63 72.9317L296.004 78.7723ZM300.708 73.7803L307.26 90.7903L312.859 88.6337L306.307 71.6237L300.708 73.7803ZM308.516 87.1395C305.426 88.9932 301.916 90.443 297.964 91.4705L299.474 97.2775C303.922 96.121 307.972 94.4628 311.603 92.2845L308.516 87.1395ZM297.95 91.4743C294.114 92.4921 289.923 93.012 285.363 93.012V99.012C290.379 99.012 295.092 98.4399 299.488 97.2737L297.95 91.4743ZM341.297 94.5L338.539 95.6792L339.317 97.5H341.297V94.5ZM313.829 30.24V27.24H309.284L311.071 31.4191L313.829 30.24ZM340.289 30.24L343.085 29.1531L342.342 27.24H340.289V30.24ZM355.031 68.166V71.166H359.416L357.827 67.0791L355.031 68.166ZM351.881 68.166L349.076 67.1034L347.537 71.166H351.881V68.166ZM366.245 30.24V27.24H364.173L363.44 29.1774L366.245 30.24ZM382.121 30.24L384.927 29.1774L384.193 27.24H382.121V30.24ZM396.485 68.166V71.166H400.829L399.291 67.1034L396.485 68.166ZM394.091 68.166L391.286 67.1034L389.747 71.166H394.091V68.166ZM408.455 30.24V27.24H406.383L405.65 29.1774L408.455 30.24ZM433.403 30.24L436.164 31.4146L437.94 27.24H433.403V30.24ZM406.061 94.5V97.5H408.045L408.822 95.6746L406.061 94.5ZM384.515 94.5L381.743 95.6463L382.509 97.5H384.515V94.5ZM368.261 55.188V52.188H363.775L365.489 56.3343L368.261 55.188ZM377.963 55.188L380.763 56.2649L382.331 52.188H377.963V55.188ZM362.843 94.5V97.5H364.904L365.643 95.5769L362.843 94.5ZM344.056 93.3208L316.588 29.0608L311.071 31.4191L338.539 95.6792L344.056 93.3208ZM313.829 33.24H340.289V27.24H313.829V33.24ZM337.493 31.3269L352.235 69.2529L357.827 67.0791L343.085 29.1531L337.493 31.3269ZM355.031 65.166H351.881V71.166H355.031V65.166ZM354.687 69.2286L369.051 31.3026L363.44 29.1774L349.076 67.1034L354.687 69.2286ZM366.245 33.24H382.121V27.24H366.245V33.24ZM379.316 31.3026L393.68 69.2286L399.291 67.1034L384.927 29.1774L379.316 31.3026ZM396.485 65.166H394.091V71.166H396.485V65.166ZM396.897 69.2286L411.261 31.3026L405.65 29.1774L391.286 67.1034L396.897 69.2286ZM408.455 33.24H433.403V27.24H408.455V33.24ZM430.643 29.0654L403.301 93.3254L408.822 95.6746L436.164 31.4146L430.643 29.0654ZM406.061 91.5H384.515V97.5H406.061V91.5ZM387.288 93.3537L371.034 54.0417L365.489 56.3343L381.743 95.6463L387.288 93.3537ZM368.261 58.188H377.963V52.188H368.261V58.188ZM375.163 54.1111L360.043 93.4231L365.643 95.5769L380.763 56.2649L375.163 54.1111ZM362.843 91.5H341.297V97.5H362.843V91.5Z" fill="#3A3748"/>
</svg>
