<svg width="33" height="33" viewBox="0 0 33 33" fill="none" xmlns="http://www.w3.org/2000/svg">
<mask id="mask0_8_594" style="mask-type:alpha" maskUnits="userSpaceOnUse" x="0" y="0" width="33" height="33">
<rect x="0.302979" y="0.34729" width="32" height="32" fill="#D9D9D9"/>
</mask>
<g mask="url(#mask0_8_594)">
<path d="M13.0209 20.655C10.8893 20.655 9.08287 19.9144 7.60167 18.4332C6.12047 16.952 5.37987 15.1456 5.37987 13.014C5.37987 10.8823 6.12047 9.07592 7.60167 7.59472C9.08287 6.11352 10.8893 5.37292 13.0209 5.37292C15.1525 5.37292 16.959 6.11352 18.4401 7.59472C19.9213 9.07592 20.6619 10.8823 20.6619 13.014C20.6619 13.9404 20.4978 14.837 20.1696 15.7037C19.8414 16.5704 19.4107 17.3114 18.8773 17.9268L26.7543 25.8037C26.879 25.9285 26.9457 26.0815 26.9543 26.2627C26.9628 26.4439 26.8961 26.6054 26.7543 26.7473C26.6124 26.8892 26.4551 26.9601 26.2825 26.9601C26.1098 26.9601 25.9525 26.8892 25.8107 26.7473L17.9337 18.8704C17.2671 19.4379 16.5004 19.8772 15.6337 20.1883C14.7671 20.4994 13.8961 20.655 13.0209 20.655ZM13.0209 19.3217C14.7901 19.3217 16.2837 18.7127 17.5017 17.4947C18.7196 16.2768 19.3286 14.7832 19.3286 13.014C19.3286 11.2447 18.7196 9.75114 17.5017 8.53319C16.2837 7.31523 14.7901 6.70625 13.0209 6.70625C11.2517 6.70625 9.75809 7.31523 8.54013 8.53319C7.3222 9.75114 6.71323 11.2447 6.71323 13.014C6.71323 14.7832 7.3222 16.2768 8.54013 17.4947C9.75809 18.7127 11.2517 19.3217 13.0209 19.3217Z" fill="#3A3748"/>
</g>
</svg>
