<svg width="106" height="152" viewBox="0 0 106 152" fill="none" xmlns="http://www.w3.org/2000/svg">
<path d="M23.4 103.75H20.4V106.75H23.4V103.75ZM23.4 89.83V86.83H20.4V89.83H23.4ZM35.8 89.83V92.83H38.8V89.83H35.8ZM35.8 61.67V58.67H32.8V61.67H35.8ZM43.56 61.67L45.0122 64.2951L43.56 58.67V61.67ZM24.76 72.07H21.76V77.158L26.2122 74.6951L24.76 72.07ZM24.76 56.23L23.3097 53.6038L21.76 54.4597V56.23H24.76ZM40.84 47.35V44.35H40.0667L39.3897 44.7238L40.84 47.35ZM53 47.35H56V44.35H53V47.35ZM53 89.83H50V92.83H53V89.83ZM64.6 89.83H67.6V86.83H64.6V89.83ZM64.6 103.75V106.75H67.6V103.75H64.6ZM26.4 103.75V89.83H20.4V103.75H26.4ZM23.4 92.83H35.8V86.83H23.4V92.83ZM38.8 89.83V61.67H32.8V89.83H38.8ZM35.8 64.67H43.56V58.67H35.8V64.67ZM42.1078 59.0449L23.3078 69.4449L26.2122 74.6951L45.0122 64.2951L42.1078 59.0449ZM27.76 72.07V56.23H21.76V72.07H27.76ZM26.2103 58.8562L42.2903 49.9762L39.3897 44.7238L23.3097 53.6038L26.2103 58.8562ZM40.84 50.35H53V44.35H40.84V50.35ZM50 47.35V89.83H56V47.35H50ZM53 92.83H64.6V86.83H53V92.83ZM61.6 89.83V103.75H67.6V89.83H61.6ZM64.6 100.75H23.4V106.75H64.6V100.75Z" fill="#08FB06"/>
</svg>
