<svg width="40" height="41" viewBox="0 0 40 41" fill="none" xmlns="http://www.w3.org/2000/svg">
<path d="M20.0183 28.0793C18.1409 28.0793 16.5089 27.738 15.1223 27.0553C13.7356 26.3513 12.6583 25.3593 11.8903 24.0793C11.1436 22.7993 10.7703 21.2846 10.7703 19.5353C10.7703 17.7646 11.1436 16.25 11.8903 14.9913C12.6583 13.7113 13.7356 12.73 15.1223 12.0473C16.5089 11.3433 18.1409 10.9913 20.0183 10.9913C21.8956 10.9913 23.5169 11.3433 24.8823 12.0473C26.2689 12.73 27.3356 13.7113 28.0823 14.9913C28.8503 16.25 29.2343 17.7646 29.2343 19.5353C29.2343 21.2846 28.8503 22.7993 28.0823 24.0793C27.3356 25.3593 26.2689 26.3513 24.8823 27.0553C23.5169 27.738 21.8956 28.0793 20.0183 28.0793ZM20.0183 23.1833C20.7863 23.1833 21.3943 22.906 21.8423 22.3513C22.2903 21.7966 22.5143 20.858 22.5143 19.5353C22.5143 18.2126 22.2903 17.274 21.8423 16.7193C21.3943 16.1646 20.7863 15.8873 20.0183 15.8873C19.2289 15.8873 18.6103 16.1646 18.1623 16.7193C17.7143 17.274 17.4903 18.2126 17.4903 19.5353C17.4903 20.858 17.7143 21.7966 18.1623 22.3513C18.6103 22.906 19.2289 23.1833 20.0183 23.1833Z" fill="#3A3748"/>
<rect x="1" y="1.25" width="38" height="38" rx="19" stroke="#08FB06" stroke-width="2"/>
</svg>
